<svg xmlns="http://www.w3.org/2000/svg" xml:space="preserve" viewBox="0 0 53 53" id="web-development">
  <path fill="#deddff" d="M47.818 12.124V46.75a3 3 0 0 1-3 3H5.464a3 3 0 0 1-3-3V12.124a3 3 0 0 1 3-3h39.354a3 3 0 0 1 3 3z"></path>
  <path fill="#c6c6f7" d="M8.399 49.748h-2.94c-1.65 0-3-1.34-3-3v-34.62c0-1.66 1.35-3 3-3h2.94c-1.66 0-3 1.34-3 3v34.62c0 1.66 1.34 3 3 3z"></path>
  <path fill="#5b5e8b" d="M47.819 12.128v3.44H2.459v-3.44c0-1.66 1.35-3 3-3h39.36c1.66 0 3 1.34 3 3z"></path>
  <path fill="#e83d62" d="m21.31 25.81-2.386-2.006a.75.75 0 0 1 0-1.148l2.387-2.005a.75.75 0 1 1 .965 1.148l-1.703 1.431 1.703 1.43a.75.75 0 1 1-.965 1.15zm5.867 1.463a.75.75 0 0 1 .092-1.056l1.703-1.43-1.703-1.431a.75.75 0 0 1 .965-1.148l2.386 2.004a.75.75 0 0 1 0 1.148l-2.386 2.005a.75.75 0 0 1-1.057-.092zm-3.814 2.353a.75.75 0 0 1-.545-.91l2.453-9.78a.751.751 0 0 1 1.455.365l-2.453 9.78a.75.75 0 0 1-.91.545z"></path>
  <path fill="#312e4b" d="M8.399 9.128c-1.66 0-3 1.34-3 3v3.44h-2.94v-3.44c0-1.66 1.35-3 3-3h2.94z"></path>
  <circle cx="8.204" cy="12.348" r="1.138" fill="#deddff"></circle>
  <circle cx="12.047" cy="12.348" r="1.138" fill="#deddff"></circle>
  <circle cx="15.889" cy="12.348" r="1.138" fill="#deddff"></circle>
  <path fill="#65b9ff" d="M50.53 11.552a8.64 8.64 0 0 1-3.176 7.13 8.701 8.701 0 0 1-4.784 1.944.54.54 0 0 0-.338.164c-1.396 1.388-3.04 1.671-3.88 1.717-.21.009-.328-.238-.2-.402.493-.628 1.046-1.82.31-2.127a8.698 8.698 0 0 1-5.332-8.025c0-4.884 4.036-8.837 8.965-8.7 2.392.064 4.583 1.15 6.126 2.83 1.351 1.47 2.219 3.378 2.31 5.469z"></path>
  <path fill="#3e7fff" d="M39.84 22.105a.282.282 0 0 0-.054.119 5.775 5.775 0 0 1-1.488.283c-.21.009-.338-.238-.201-.402.497-.633 1.048-1.816.301-2.127a8.69 8.69 0 0 1-5.322-8.025c0-4.884 4.035-8.837 8.955-8.7.21.01.43.018.64.046-4.4.429-7.843 4.144-7.843 8.654a8.69 8.69 0 0 0 5.323 8.025c.763.318.164 1.534-.31 2.127z"></path>
  <path fill="#deddff" d="M47.406 11.385c-.01-.2-.17-.34-.35-.37-.211-.063-.612.015-.73-.36-.09-.25-.19-.49-.33-.72a.446.446 0 0 1 .01-.46c.084-.18.497-.506.2-.87-.288-.313-.439-.477-.8-.76a.435.435 0 0 0-.53 0l-.34.23a.41.41 0 0 1-.45.03c-.785-.346-.979-.287-1.06-.61-.05-.14-.006-.697-.45-.72-.38-.04-.77-.02-1.15.04-.18.02-.32.18-.34.37-.04.13.003.576-.35.67-.25.09-.49.18-.71.31-.15.08-.31.08-.45-.01-.103-.045-.462-.443-.8-.15-.14.12-.27.25-.4.39-.13.13-.24.27-.35.41-.29.334.13.684.18.79.09.12.1.3.03.45-.11.22-.2.47-.27.72-.133.534-.978.165-1.01.74-.05.39-.03.78.01 1.16.07.422.576.362.75.42.16.02.29.13.34.29.208.65.534.867.31 1.18l-.22.34c-.11.17-.09.38.03.54.12.13.25.27.39.4.13.12.27.25.41.36.368.276.676-.146.86-.24.354-.253.498.088 1.2.25.778.31-.344 1.385 1.91 1.02.617-.098.132-.88.71-1.05.24-.08.47-.19.7-.3.14-.08.32-.08.45.01l.26.17c.16.12.38.1.53-.03a5.06 5.06 0 0 0 .76-.8c.29-.362-.123-.662-.18-.78a.447.447 0 0 1-.04-.46c.343-.63.228-.959.61-1.03.122-.045.636-.008.68-.43.03-.38.03-.77-.02-1.14zm-5.22 2.91a2.279 2.279 0 1 1 0-4.56c1.25 0 2.27 1.02 2.27 2.28s-1.02 2.28-2.27 2.28z"></path>
  <path fill="#e83d62" d="M13.965 36.883c.373 0 .679.305.679.679s-.306.68-.68.68h-3.486c-.374 0-.68-.306-.68-.68s.306-.68.68-.68h3.487z"></path>
  <path fill="#46cc6b" d="M21.368 43.641c0 .374-.305.68-.679.68h-2.66c-.374 0-.68-.306-.68-.68s.306-.68.68-.68h2.66c.374 0 .68.307.68.68z"></path>
  <path fill="#fcb73e" d="M9.799 31.494c0-.373.305-.679.679-.679h3.487c.373 0 .679.306.679.68 0 .373-.306.678-.68.678h-3.486a.681.681 0 0 1-.68-.679zm6.543 12.147c0 .374-.306.68-.68.68h-5.184c-.374 0-.68-.306-.68-.68s.306-.68.68-.68h5.185c.373 0 .679.307.679.68zm7.381-8.434h-7.12c-.374 0-.68-.305-.68-.679s.306-.68.68-.68h7.12c.373 0 .68.307.68.68s-.307.68-.68.68zm2.14 11.468c0 .374-.306.68-.68.68h-7.086c-.374 0-.68-.306-.68-.68s.306-.68.68-.68h7.086c.374 0 .68.306.68.68zm9.531-8.434h-8.92c-.385 0-.68-.305-.68-.679s.295-.68.68-.68h8.92c.374 0 .68.306.68.68s-.306.68-.68.68zm-7.188-6.747c0-.373.306-.679.68-.679h5.173c.373 0 .679.306.679.68 0 .373-.306.678-.68.678h-5.173a.681.681 0 0 1-.68-.679zm16.177 12.147c0 .374-.306.68-.68.68H38.52c-.374 0-.68-.306-.68-.68s.306-.68.68-.68h5.185c.373 0 .679.307.679.68z"></path>
  <path fill="#46cc6b" d="M44.689 37.562c0 .374-.306.68-.68.68h-5.185c-.373 0-.679-.306-.679-.68s.306-.68.68-.68h5.184c.374 0 .68.306.68.68zm-34.89-3.034c0-.373.305-.68.679-.68h3.487c.373 0 .679.307.679.68s-.306.68-.68.68h-3.486a.681.681 0 0 1-.68-.68zm16.675-.68h5.173c.374 0 .68.307.68.68s-.306.68-.68.68h-5.173c-.385 0-.68-.306-.68-.68s.295-.68.68-.68z"></path>
  <path fill="#e83d62" d="M35.042 33.849h5.174c.373 0 .679.306.679.68s-.306.678-.68.678h-5.173c-.385 0-.679-.305-.679-.679s.294-.68.68-.68z"></path>
  <path fill="#46cc6b" d="M25.625 32.173h-8.74a.681.681 0 0 1-.679-.679c0-.373.306-.679.68-.679h8.739c.373 0 .679.306.679.68 0 .373-.306.678-.68.678zm8.319 14.502c0 .374-.306.68-.68.68h-5.003c-.374 0-.68-.306-.68-.68s.306-.68.68-.68h5.004c.373 0 .679.306.679.68z"></path>
  <path fill="#e83d62" d="M44.292 46.675c0 .374-.305.68-.679.68H38.61c-.373 0-.679-.306-.679-.68s.306-.68.68-.68h5.003c.374 0 .68.306.68.68z"></path>
  <path fill="#46cc6b" d="M16.342 46.675c0 .374-.306.68-.68.68h-5.184c-.374 0-.68-.306-.68-.68s.306-.68.68-.68h5.185c.373 0 .679.306.679.68z"></path>
  <path fill="#e83d62" d="M37.07 43.641c0 .374-.306.68-.68.68H22.954c-.373 0-.68-.306-.68-.68s.307-.68.68-.68h13.438c.373 0 .679.307.679.68z"></path>
  <path fill="#65b9ff" d="M24.402 37.562c0 .374-.306.68-.679.68h-7.12c-.374 0-.68-.306-.68-.68s.306-.68.68-.68h7.12c.373 0 .68.306.68.68zM17.893 40.596c0 .385-.306.69-.68.69H7.139a.684.684 0 0 1-.679-.69c0-.374.306-.68.68-.68h10.075c.373 0 .679.306.679.68z"></path>
</svg>
