<svg xmlns="http://www.w3.org/2000/svg" enable-background="new 0 0 512 512" viewBox="0 0 512 512" id="cloudcomputing">
  <linearGradient id="a" x1="35.81" x2="488.19" y1="479.124" y2="26.745" gradientUnits="userSpaceOnUse">
    <stop offset="0" stop-color="#5ebce5"></stop>
    <stop offset="0" stop-color="#65b7e5"></stop>
    <stop offset=".496" stop-color="#b678e6"></stop>
    <stop offset="1" stop-color="#e25b61"></stop>
  </linearGradient>
  <path fill="url(#a)" d="M432,216v-80h48.187c8.719,0,15.813-7.094,15.813-15.813v-16.374c0-5.877-3.229-11.005-8-13.73V34
	c0-9.925-8.075-18-18-18H362c-9.925,0-18,8.075-18,18v56.083c-4.771,2.726-8,7.854-8,13.73v16.374
	c0,8.719,7.094,15.813,15.813,15.813H416v72H297.573c-3.608-6.253-8.532-11.507-14.316-15.498l3.505-17.519l20.242-3.375
	C311.101,178.991,318.975,184,328,184c13.234,0,24-10.766,24-24s-10.766-24-24-24c-11.81,0-21.647,8.576-23.629,19.826
	l-25.686,4.282c-3.278,0.546-5.877,3.063-6.529,6.322l-3.837,19.181c-1.417-0.376-2.86-0.671-4.318-0.917V120
	c0-2.675-1.337-5.173-3.562-6.656L240,99.719V86.624c9.311-3.302,16-12.195,16-22.624c0-13.234-10.766-24-24-24s-24,10.766-24,24
	c0,10.429,6.689,19.322,16,22.624V104c0,2.675,1.337,5.173,3.562,6.656L248,124.281v60.413c-8.25,1.391-15.899,4.898-22.267,10.074
	L176,156.087v-13.464c9.311-3.302,16-12.195,16-22.624c0-13.234-10.766-24-24-24s-24,10.766-24,24c0,10.429,6.689,19.322,16,22.624
	V160c0,2.469,1.14,4.799,3.088,6.315l52.074,40.502c-0.244,0.395-0.502,0.779-0.735,1.183H96v-64.118
	c8.987-0.999,16-8.633,16-17.882V34c0-9.925-8.075-18-18-18H34c-9.925,0-18,8.075-18,18v92c0,9.925,8.075,18,18,18h46v72
	c0,4.418,3.582,8,8,8h96.025c-4.126,5.483-6.88,12.054-7.739,19.202c-2.986,1.272-5.764,2.893-8.302,4.798H62.624
	c-3.302-9.311-12.194-16-22.624-16c-13.234,0-24,10.766-24,24s10.766,24,24,24c10.429,0,19.322-6.689,22.624-16h92.709
	c-2.151,4.932-3.333,10.354-3.333,16c0,2.739,0.278,5.414,0.805,8H88c-4.418,0-8,3.582-8,8v72H34c-9.925,0-18,8.075-18,18v60
	c0,9.925,8.075,18,18,18h30v16h-8c-4.418,0-8,3.582-8,8s3.582,8,8,8h16h32h16c4.418,0,8-3.582,8-8s-3.582-8-8-8h-8v-16h30
	c9.925,0,18-8.075,18-18v-60c0-9.925-8.075-18-18-18H96v-64h64.022c7.305,9.709,18.92,16,31.978,16h8v9.223l-19.003,3.168
	C176.899,325.009,169.025,320,160,320c-13.234,0-24,10.766-24,24s10.766,24,24,24c11.81,0,21.647-8.576,23.629-19.826l25.686-4.282
	c3.857-0.643,6.685-3.98,6.685-7.891v-16h32v32c0,2.122,0.843,4.157,2.343,5.657L296,403.314v14.062
	c-9.311,3.302-16,12.195-16,22.624c0,13.234,10.766,24,24,24s24-10.766,24-24c0-10.429-6.689-19.322-16-22.624V400
	c0-2.122-0.843-4.157-2.343-5.657L264,348.686V320h8v16c0,3.271,1.992,6.213,5.029,7.428l18.996,7.598
	C296.012,351.35,296,351.673,296,352c0,13.234,10.766,24,24,24s24-10.766,24-24s-10.766-24-24-24c-7.175,0-13.62,3.169-18.021,8.175
	L288,330.584V320h32c13.058,0,24.673-6.291,31.978-16H416v32h-56c-4.418,0-8,3.582-8,8v32c0,4.418,3.582,8,8,8h16v8h-16
	c-4.418,0-8,3.582-8,8v32c0,4.418,3.582,8,8,8h16v8h-16c-4.418,0-8,3.582-8,8v32c0,4.418,3.582,8,8,8h128c4.418,0,8-3.582,8-8v-32
	c0-4.418-3.582-8-8-8h-16v-8h16c4.418,0,8-3.582,8-8v-32c0-4.418-3.582-8-8-8h-16v-8h16c4.418,0,8-3.582,8-8v-32
	c0-4.418-3.582-8-8-8h-56v-40c0-4.418-3.582-8-8-8h-64.805c0.527-2.586,0.805-5.261,0.805-8c0-5.646-1.182-11.068-3.333-16h92.709
	c3.302,9.311,12.194,16,22.624,16c13.234,0,24-10.766,24-24s-10.766-24-24-24c-10.429,0-19.322,6.689-22.624,16h-105.36
	c-2.538-1.905-5.316-3.526-8.302-4.798c-0.858-7.147-3.612-13.719-7.738-19.202H424C428.418,224,432,220.418,432,216z M328,152
	c4.411,0,8,3.589,8,8s-3.589,8-8,8s-8-3.589-8-8S323.589,152,328,152z M232,72c-4.411,0-8-3.589-8-8s3.589-8,8-8s8,3.589,8,8
	S236.411,72,232,72z M168,128c-4.411,0-8-3.589-8-8s3.589-8,8-8s8,3.589,8,8S172.411,128,168,128z M32,34c0-1.103,0.897-2,2-2h60
	c1.103,0,2,0.897,2,2v62H32V34z M94,128H64.02H34c-1.103,0-2-0.897-2-2v-14h32.01c-4.418,0-7.995,3.582-7.995,8s3.586,8,8.005,8
	s8-3.582,8-8s-3.582-8-8-8H96v14C96,127.103,95.103,128,94,128z M40,264c-4.411,0-8-3.589-8-8s3.589-8,8-8s8,3.589,8,8
	S44.411,264,40,264z M96,480H80v-16h16V480z M142,384c1.103,0,2,0.897,2,2v60c0,1.103-0.897,2-2,2H34c-1.103,0-2-0.897-2-2v-60
	c0-1.103,0.897-2,2-2H142z M160,352c-4.411,0-8-3.589-8-8s3.589-8,8-8s8,3.589,8,8S164.411,352,160,352z M304,432
	c4.411,0,8,3.589,8,8s-3.589,8-8,8s-8-3.589-8-8S299.589,432,304,432z M320,344c4.411,0,8,3.589,8,8s-3.589,8-8,8s-8-3.589-8-8
	S315.589,344,320,344z M392,384h64v8h-64V384z M384,480h-16v-16h16V480z M384,424h-16v-16h16V424z M384,368h-16v-16h16V368z
	 M392,440h64v8h-64V440z M480,464v16h-80v-16H480z M480,408v16h-80v-16H480z M480,352v16h-80v-16H480z M472,248c4.411,0,8,3.589,8,8
	s-3.589,8-8,8s-8-3.589-8-8S467.589,248,472,248z M344,280c0,13.233-10.767,24-24,24H192c-13.233,0-24-10.767-24-24
	c0-10.968,7.407-20.528,18.013-23.249c3.627-0.931,6.124-4.252,6.008-7.995l-0.009-0.272C192.007,248.323,192,248.162,192,248
	c0-13.233,10.767-24,24-24c0.821,0,1.647,0.042,2.456,0.124c3.469,0.356,6.77-1.585,8.152-4.789
	C231.679,207.589,243.215,200,256,200s24.322,7.589,29.392,19.335c1.382,3.203,4.675,5.142,8.153,4.789
	c0.808-0.082,1.634-0.124,2.455-0.124c13.233,0,24,10.767,24,24c0,0.162-0.007,0.323-0.013,0.483l-0.009,0.272
	c-0.115,3.743,2.381,7.065,6.008,7.995C336.593,259.472,344,269.032,344,280z M360,34c0-1.103,0.897-2,2-2h108c1.103,0,2,0.897,2,2
	v54H360V34z M352,120v-16h128v16H352z M461.657,50.343c3.125,3.124,3.125,8.189,0,11.313C460.095,63.219,458.047,64,456,64
	s-4.095-0.781-5.657-2.343l-8-8c-3.125-3.124-3.125-8.189,0-11.313c3.124-3.124,8.189-3.124,11.313,0L461.657,50.343z M232,368h-48
	c-4.418,0-8,3.582-8,8v112c0,4.418,3.582,8,8,8h48c4.418,0,8-3.582,8-8V376C240,371.582,236.418,368,232,368z M224,400v24v56h-32
	v-56v-24v-16h32V400z M224,400c0,4.418-3.582,8-8,8h-16c-4.418,0-8-3.582-8-8s3.582-8,8-8h16C220.418,392,224,395.582,224,400z
	 M224,424c0,4.418-3.582,8-8,8h-16c-4.418,0-8-3.582-8-8s3.582-8,8-8h16C220.418,416,224,419.582,224,424z M216.02,464
	c0,4.418-3.582,8-8,8s-8.005-3.582-8.005-8s3.577-8,7.995-8h0.01C212.438,456,216.02,459.582,216.02,464z M114.343,405.657
	c-3.125-3.124-3.125-8.189,0-11.313c3.124-3.124,8.189-3.124,11.313,0l8,8c3.125,3.124,3.125,8.189,0,11.313
	C132.095,415.219,130.047,416,128,416s-4.095-0.781-5.657-2.343L114.343,405.657z"></path>
</svg>
