<svg xmlns="http://www.w3.org/2000/svg" viewBox="0 0 512 512" id="artifical-intelligence">
  <path fill="#0635c9" d="M154.891 187.176a73.923 73.923 0 0 1 27.916-5.471 6 6 0 0 0 0-12 86.148 86.148 0 1 0 0 172.3 5.876 5.876 0 0 0 6-5.851 5.938 5.938 0 0 0-6-5.928 74.239 74.239 0 0 1-27.918-143.045Z"></path>
  <path fill="#0635c9" d="m19.877 287.841 21.6 7.313a150.769 150.769 0 0 0 16.077 36.858l-9.411 21a6 6 0 0 0 1.285 6.748l33.781 32.958a6 6 0 0 0 6.847 1.085l20.68-10.215a135.476 135.476 0 0 0 37.429 14.769L156.18 420a6.09 6.09 0 0 0 5.623 4h.1l21-.459a6.037 6.037 0 0 0-.207-12.071l-16.758.277-7.677-20.638a6.006 6.006 0 0 0-4.415-3.788 123.582 123.582 0 0 1-39.722-15.673 6 6 0 0 0-5.788-.261l-19.795 9.777L60.806 354.1l9-20.087a6 6 0 0 0-.412-5.673 138.827 138.827 0 0 1-17.17-39.363 6 6 0 0 0-3.88-4.163l-20.619-6.98-.657-38.69 20.632-7.67a6 6 0 0 0 3.787-4.416 123.775 123.775 0 0 1 15.672-39.735 6 6 0 0 0 .26-5.786l-9.778-19.8L84.71 134l20.086 9a6 6 0 0 0 5.673-.411 138.845 138.845 0 0 1 39.364-17.17A6 6 0 0 0 154 121.54l6.98-20.618 21.931-.368a6 6 0 0 0-.2-12L156.548 89a6 6 0 0 0-5.582 4.075l-7.313 21.6a150.831 150.831 0 0 0-36.859 16.077l-21-9.411a6 6 0 0 0-6.748 1.285L46.088 156.4A6 6 0 0 0 45 163.249l10.219 20.681a135.607 135.607 0 0 0-14.77 37.437l-21.539 8.006A6 6 0 0 0 15 235.1l.8 47.161a6 6 0 0 0 4.077 5.58Z"></path>
  <path fill="#1ae5be" d="M465.346 224.346A31.626 31.626 0 0 0 434.277 250H195v12h239.277a31.647 31.647 0 1 0 31.069-37.654zm13.9 45.551a19.654 19.654 0 1 1 0-27.794 19.676 19.676 0 0 1-.002 27.797zM301.668 165a32.056 32.056 0 0 0-32.13 32 20.042 20.042 0 0 1-20.13 20H195v12h54.408a32.056 32.056 0 0 0 32.13-32 20.042 20.042 0 0 1 20.13-20h50.555a31.769 31.769 0 0 0 8.7 16.28 31.756 31.756 0 1 0 0-44.764 32.363 32.363 0 0 0-8.7 16.484zm67.742-8.1a19.654 19.654 0 1 1 0 27.8 19.592 19.592 0 0 1 0-27.8zm13.898 152.652a31.351 31.351 0 0 0-22.383 9.168 31.769 31.769 0 0 0-8.7 16.28h-50.557a20.042 20.042 0 0 1-20.13-20 32.056 32.056 0 0 0-32.13-32H195v12h54.408a20.042 20.042 0 0 1 20.13 20 32.056 32.056 0 0 0 32.13 32h50.555a32.369 32.369 0 0 0 8.7 16.486 31.62 31.62 0 1 0 22.383-53.934zm13.9 45.552a19.645 19.645 0 1 1 0-27.795 19.676 19.676 0 0 1-.003 27.791zm-160.525-7.545 17 45.969A39.133 39.133 0 0 0 290.16 419h7.94a31.8 31.8 0 1 0 7.989-31.411A32.4 32.4 0 0 0 296.961 407h-6.8a27.084 27.084 0 0 1-25.229-17.64l-16.995-45.928A39.1 39.1 0 0 0 211.454 318H195v12h16.454a27.013 27.013 0 0 1 25.229 17.559zm77.889 48.433a19.653 19.653 0 1 1-5.757 13.9 19.593 19.593 0 0 1 5.757-13.9zM298.1 93h-7.94a39.133 39.133 0 0 0-36.482 25.472l-17 45.929A27.05 27.05 0 0 1 211.454 182H195v12h16.454a39.061 39.061 0 0 0 36.482-25.391l16.995-45.969A27.084 27.084 0 0 1 290.16 105h6.8a32.406 32.406 0 0 0 9.125 19.412A31.568 31.568 0 1 0 298.1 93zm16.475-4.787a19.653 19.653 0 1 1-5.757 13.9 19.59 19.59 0 0 1 5.754-13.9z"></path>
</svg>
