<svg xmlns="http://www.w3.org/2000/svg" viewBox="0 0 64 64" id="web-desing">
  <g>
    <path fill="#9bc9ff" d="M38 53h21V17a4 4 0 0 0-4-4h-4v4h4v32H9V17h4v-4H9a4 4 0 0 0-4 4v36h33Z"></path>
    <path fill="#9bc9ff" d="M13 42a3 3 0 0 1 6 0V6a3 3 0 0 0-6 0v36zm35-3a3 3 0 0 1 3 3V6a3 3 0 0 0-6 0v36a3 3 0 0 1 3-3zM38 53v2a2 2 0 0 1-2 2h-8a2 2 0 0 1-2-2v-2H3v4a4 4 0 0 0 4 4h50a4 4 0 0 0 4-4v-4H38zM29 18v-3h-6v3h6zM26 33l3 2V18h-3v15zM26 18h-3v17l3-2V18zM33 13h8v28h-8z"></path>
    <path fill="#1e81ce" d="M61 52h-1V17a5 5 0 0 0-5-5h-3V6a3.993 3.993 0 0 0-7.86-1H19.86A3.993 3.993 0 0 0 12 6v6H9a5 5 0 0 0-5 5v35H3a1 1 0 0 0-1 1v4a5 5 0 0 0 5 5h50a5 5 0 0 0 5-5v-4a1 1 0 0 0-1-1ZM46 6a2 2 0 0 1 4 0v32.54a3.974 3.974 0 0 0-4 0ZM14 6a2 2 0 0 1 4 0v32.54a4.123 4.123 0 0 0-4 0Zm2 34a2.006 2.006 0 0 1 2 2 1 1 0 0 0 2 0V7h24v35a1 1 0 0 0 2 0 2 2 0 1 1 2 2H16a2 2 0 0 1 0-4Zm0 6h32a4 4 0 0 0 4-4V18h2v30H10V18h2v24a4 4 0 0 0 4 4ZM6 17a3.009 3.009 0 0 1 3-3h3v2H9a1 1 0 0 0-1 1v32a1 1 0 0 0 1 1h46a1 1 0 0 0 1-1V17a1 1 0 0 0-1-1h-3v-2h3a3.009 3.009 0 0 1 3 3v35H6Zm31 37v1a1 1 0 0 1-1 1h-8a1 1 0 0 1-1-1v-1Zm23 3a3.009 3.009 0 0 1-3 3H7a3.009 3.009 0 0 1-3-3v-3h21v1a3.009 3.009 0 0 0 3 3h8a3.009 3.009 0 0 0 3-3v-1h21Z"></path>
    <path fill="#1e81ce" d="M25.105 41.447a1 1 0 0 0 1.79 0l3-6A1 1 0 0 0 30 35V13a4 4 0 0 0-8 0v22a1 1 0 0 0 .105.447zM28 17h-4v-1h4zm-4 2h1v13.465l-1 .667zm2 19.764-1.711-3.422L26 34.2l1.711 1.14zm2-5.632-1-.667V19h1zM24 13a2 2 0 0 1 4 0v1h-4zm17-1h-8a1 1 0 0 0-1 1v28a1 1 0 0 0 1 1h8a1 1 0 0 0 1-1V13a1 1 0 0 0-1-1zm-1 4h-3v2h3v2h-3v2h3v2h-3v2h3v2h-3v2h3v2h-3v2h3v2h-3v2h3v2h-6V14h6z"></path>
  </g>
</svg>
